/vscmnt/brussel_pixiu_data/_data_brussel/112/vsc11236/PredSimResults/SUBJ10_gait1422_tracking/SUBJ10_gait1422_11454268.mot
version=1
nRows=8
nColumns=50
inDegrees=yes
endheader
                time	         pelvis_tilt	         pelvis_list	     pelvis_rotation	           pelvis_tx	           pelvis_ty	           pelvis_tz	       hip_flexion_r	     hip_adduction_r	      hip_rotation_r	        knee_angle_r	       ankle_angle_r	         mtp_angle_r	       hip_flexion_l	     hip_adduction_l	      hip_rotation_l	        knee_angle_l	       ankle_angle_l	         mtp_angle_l	    lumbar_extension	      lumbar_bending	     lumbar_rotation	 ercspn_r/activation	 intobl_r/activation	 extobl_r/activation	    abd_r/activation	    add_r/activation	hamstrings_r/activation	bifemsh_r/activation	glut_max_r/activation	iliopsoas_r/activation	rect_fem_r/activation	  vasti_r/activation	gastroc_r/activation	 soleus_r/activation	tib_ant_r/activation	 ercspn_l/activation	 intobl_l/activation	 extobl_l/activation	    abd_l/activation	    add_l/activation	hamstrings_l/activation	bifemsh_l/activation	glut_max_l/activation	iliopsoas_l/activation	rect_fem_l/activation	  vasti_l/activation	gastroc_l/activation	 soleus_l/activation	tib_ant_l/activation	
          0.56865523	         -2.39360672	         -0.59482873	         -4.74976059	          0.68751983	          0.81573504	          0.00956188	        -14.87230745	          3.92561607	         -6.96149299	        -13.35326170	         13.41653787	         26.01483981	         30.94226917	          1.14055852	         -8.93164653	         -6.12353041	          0.33568393	          0.26761047	         -3.92782077	          3.63413942	          7.79004757	          0.06935327	          0.01000551	          0.01000272	          0.06496937	          0.01000425	          0.01000690	          0.01937754	          0.01001008	          0.05981939	          0.23067363	          0.02392914	          0.46300638	          0.27286301	          0.02477609	          0.04653485	          0.04984204	          0.04164120	          0.01683369	          0.06751249	          0.06092715	          0.13939317	          0.02146653	          0.06097120	          0.01189413	          0.01189798	          0.04454141	          0.01683283	          0.15481509	
          0.58002834	         -2.42559823	         -0.09471628	         -4.90940515	          0.70449111	          0.81361060	          0.00962842	        -15.63004679	          3.19439279	         -7.01362126	        -13.97456453	         12.40145221	         28.01881712	         30.98083152	          1.66028036	         -8.00345332	         -8.17217472	         -0.29443427	          0.23159099	         -3.52987369	          2.93792083	          7.57990184	          0.07656797	          0.01000365	          0.01000544	          0.05461785	          0.01000260	          0.01006960	          0.01629330	          0.01728714	          0.05028872	          0.19391812	          0.02832963	          0.46502246	          0.33182283	          0.02082812	          0.03912028	          0.05140707	          0.03500761	          0.01415231	          0.06926976	          0.05471930	          0.26063429	          0.01804934	          0.05125674	          0.01000118	          0.01000248	          0.03744428	          0.01415144	          0.20933464	
          0.59140144	         -2.43681515	          0.38293681	         -5.05848929	          0.72224040	          0.81191482	          0.00950601	        -16.46916159	          2.47021836	         -7.10253273	        -14.48607168	         10.92218163	         30.21260251	         30.82749484	          2.25149218	         -7.07308115	        -10.05572324	         -0.36207056	          0.21286657	         -3.03437564	          2.30058090	          7.36929326	          0.06437067	          0.01004854	          0.11819187	          0.04591526	          0.01000415	          0.01000411	          0.01370011	          0.02228782	          0.04227736	          0.16301867	          0.02381815	          0.45277452	          0.36166586	          0.01750923	          0.03288708	          0.13285188	          0.02943338	          0.01189740	          0.10797684	          0.04600028	          0.21910779	          0.01517363	          0.20090128	          0.14260097	          0.01000048	          0.03147786	          0.01189654	          0.31992806	
          0.60277455	         -2.42728770	          0.96776128	         -5.13912040	          0.74025338	          0.81082009	          0.00905981	        -17.25527950	          1.62678956	         -7.31179799	        -15.06049973	          9.07965362	         32.52621165	         30.81564993	          3.00648885	         -6.30482492	        -12.25787266	         -0.04452270	          0.20317693	         -2.51447937	          1.57307960	          7.15548308	          0.05411454	          0.01416111	          0.09936284	          0.03859930	          0.01189864	          0.02540847	          0.01154898	          0.01875344	          0.03554497	          0.13704257	          0.02002307	          0.45213057	          0.36681865	          0.01471920	          0.02764718	          0.12958124	          0.04663849	          0.01000186	          0.10627677	          0.03867060	          0.18419554	          0.01275620	          0.18332941	          0.20150185	          0.07389906	          0.02646238	          0.01000113	          0.28001681	
          0.61414765	         -2.38962938	          1.76050860	         -5.12037096	          0.75837635	          0.81044368	          0.00825735	        -17.93394704	          0.56816831	         -7.66838769	        -15.79344615	          6.95033707	         34.84425597	         30.86061580	          4.01232725	         -5.81246727	        -14.44974982	         -0.17497808	          0.19996037	         -1.99952051	          0.63248511	          6.92064263	          0.04549368	          0.01190594	          0.08353069	          0.03244953	          0.01000571	          0.04452186	          0.04088171	          0.01860475	          0.02988760	          0.11520562	          0.01683264	          0.38009039	          0.30836769	          0.01237376	          0.02324265	          0.10897764	          0.03920951	          0.01000258	          0.08934438	          0.03250957	          0.15484692	          0.01673833	          0.15411748	          0.16939509	          0.06212585	          0.02227009	          0.03644834	          0.24948556	
          0.62552076	         -2.30868340	          2.61987009	         -4.99270884	          0.77657755	          0.81073804	          0.00714470	        -18.49905671	         -0.55677080	         -8.13580877	        -16.76506302	          4.60789003	         36.91632224	         30.92047983	          5.11347928	         -5.54259996	        -16.71480000	         -0.35016385	          0.19106936	         -1.52566095	         -0.37291332	          6.66396485	          0.05146987	          0.01001106	          0.07022096	          0.02728005	          0.01254036	          0.09125979	          0.05767839	          0.02831054	          0.09166367	          0.09684826	          0.01415058	          0.31952425	          0.25923027	          0.01040205	          0.04189449	          0.09161916	          0.03296507	          0.04268476	          0.07511120	          0.02733890	          0.13017634	          0.06891841	          0.12956005	          0.14240353	          0.05222680	          0.02382205	          0.03064306	          0.21696299	
          0.63689386	         -2.17527412	          3.35129615	         -4.76644235	          0.79485373	          0.81159450	          0.00583075	        -18.90390352	         -1.55457444	         -8.66123088	        -18.11987730	          2.15016131	         38.43161310	         30.89258711	          6.10971441	         -5.40126724	        -18.97052546	         -0.41561691	          0.19004774	         -1.11619800	         -1.23821916	          6.38901075	          0.04326953	          0.01000419	          0.05903233	          0.02293534	          0.01601927	          0.11070733	          0.17359200	          0.02381238	          0.15468242	          0.08141606	          0.01189585	          0.26860906	          0.21792272	          0.01000017	          0.04557011	          0.11284370	          0.05159015	          0.08297578	          0.06314794	          0.02298371	          0.10943583	          0.05794016	          0.10891592	          0.11971512	          0.05817512	          0.02004173	          0.02576419	          0.19528817	
          0.64826697	         -1.99594139	          3.91320528	         -4.45445906	          0.81306464	          0.81287471	          0.00443150	        -18.99665919	         -2.40339482	         -9.18665402	        -20.16663392	         -0.06346534	         38.79850050	         30.71147540	          6.96215055	         -5.27523665	        -21.13794225	         -0.07112597	          0.24054976	         -0.78489669	         -1.93778267	          6.08824461	          0.03637591	          0.01000452	          0.04962760	          0.01928471	          0.02372925	          0.09306791	          0.14593310	          0.02002229	          0.19898214	          0.06844320	          0.01000061	          0.22580705	          0.18319741	          0.05672796	          0.03831180	          0.09488990	          0.07084449	          0.11805297	          0.05308879	          0.01932223	          0.09200049	          0.04870897	          0.09156133	          0.10065405	          0.09112808	          0.01685535	          0.02166068	          0.17679589	
